<svg width="149" height="714" viewBox="0 0 149 714" fill="none" xmlns="http://www.w3.org/2000/svg">
<path d="M4.11777 141.031L4.13318 142.015H5.11765H56.6471C59.5107 142.015 61.4879 142.836 62.7729 144.323C64.0819 145.838 64.8235 148.214 64.8235 151.632V553.214C64.8235 559.31 64.2402 564.447 63.0941 568.644L63.0895 568.661L63.0854 568.679C62.6836 570.387 61.6989 571.654 60.0602 572.525C58.3801 573.418 55.9763 573.908 52.7647 573.908H11.8235H10.8027L10.8237 574.929L13.6473 712.021L13.6674 713H14.6471H147H148V712V573.985V572.985H147H109.235C104.146 572.985 100.495 571.477 98.0895 568.611C95.6559 565.711 94.3529 561.253 94.3529 555.06V500.592C94.3529 467.053 95.0588 301.193 96.4706 3.00473L96.4755 1.96945L95.4407 2.00045L2.97006 4.76998L1.98469 4.79949L2.00012 5.78519L4.11777 141.031Z" stroke="white" stroke-width="2"/>
</svg>
