<svg width="150" height="279" viewBox="0 0 150 279" fill="none" xmlns="http://www.w3.org/2000/svg">
<path d="M2.00003 85.0946L1.99181 86.1027H3H18.963C23.0374 86.1027 25.9508 87.4628 27.8868 90.0785C29.8637 92.7495 30.9323 96.8762 30.933 102.62C30.933 102.622 30.933 102.624 30.933 102.626L29.9353 185.186V185.198C29.9353 188.909 29.2411 191.51 28.0125 193.164C26.8253 194.762 25.0341 195.614 22.455 195.614H4.66282H3.65862L3.66283 196.619L3.99539 276.004L3.9996 277.009L5.00403 277L66.362 276.469L67.3618 276.46L67.3533 275.46L66.6882 197.137L66.6798 196.145H65.6882H51.388C50.1655 196.145 49.1424 195.86 48.2824 195.319C47.419 194.777 46.6633 193.943 46.0357 192.76C44.7649 190.366 44.0739 186.646 44.0739 181.481V181.465V181.449V181.434V181.418V181.402V181.387V181.371V181.355V181.339V181.323V181.307V181.291V181.275V181.259V181.243V181.227V181.211V181.195V181.179V181.163V181.146V181.13V181.114V181.097V181.081V181.064V181.048V181.032V181.015V180.998V180.982V180.965V180.948V180.932V180.915V180.898V180.881V180.865V180.848V180.831V180.814V180.797V180.78V180.763V180.746V180.729V180.711V180.694V180.677V180.66V180.642V180.625V180.608V180.59V180.573V180.555V180.538V180.52V180.503V180.485V180.468V180.45V180.432V180.414V180.397V180.379V180.361V180.343V180.325V180.307V180.289V180.271V180.253V180.235V180.217V180.199V180.181V180.162V180.144V180.126V180.108V180.089V180.071V180.052V180.034V180.015V179.997V179.978V179.96V179.941V179.922V179.904V179.885V179.866V179.847V179.828V179.81V179.791V179.772V179.753V179.734V179.715V179.696V179.676V179.657V179.638V179.619V179.6V179.58V179.561V179.542V179.522V179.503V179.483V179.464V179.444V179.425V179.405V179.386V179.366V179.346V179.326V179.307V179.287V179.267V179.247V179.227V179.207V179.187V179.167V179.147V179.127V179.107V179.087V179.067V179.046V179.026V179.006V178.986V178.965V178.945V178.924V178.904V178.883V178.863V178.842V178.822V178.801V178.78V178.76V178.739V178.718V178.697V178.677V178.656V178.635V178.614V178.593V178.572V178.551V178.53V178.509V178.487V178.466V178.445V178.424V178.402V178.381V178.36V178.338V178.317V178.295V178.274V178.252V178.231V178.209V178.188V178.166V178.144V178.123V178.101V178.079V178.057V178.035V178.013V177.991V177.969V177.947V177.925V177.903V177.881V177.859V177.837V177.815V177.792V177.77V177.748V177.725V177.703V177.681V177.658V177.636V177.613V177.59V177.568V177.545V177.523V177.5V177.477V177.454V177.432V177.409V177.386V177.363V177.34V177.317V177.294V177.271V177.248V177.225V177.202V177.178V177.155V177.132V177.109V177.085V177.062V177.039V177.015V176.992V176.968V176.945V176.921V176.898V176.874V176.85V176.827V176.803V176.779V176.755V176.731V176.708V176.684V176.66V176.636V176.612V176.588V176.564V176.539V176.515V176.491V176.467V176.443V176.418V176.394V176.37V176.345V176.321V176.296V176.272V176.247V176.223V176.198V176.174V176.149V176.124V176.099V176.075V176.05V176.025V176V175.975V175.95V175.925V175.9V175.875V175.85V175.825V175.8V175.775V175.75V175.724V175.699V175.674V175.648V175.623V175.598V175.572V175.547V175.521V175.496V175.47V175.444V175.419V175.393V175.367V175.341V175.316V175.29V175.264V175.238V175.212V175.186V175.16V175.134V175.108V175.082V175.056V175.03V175.003V174.977V174.951V174.924V174.898V174.872V174.845V174.819V174.792V174.766V174.739V174.713V174.686V174.659V174.633V174.606V174.579V174.552V174.526V174.499V174.472V174.445V174.418V174.391V174.364V174.337V174.31V174.283V174.255V174.228V174.201V174.174V174.146V174.119V174.092V174.064V174.037V174.009V173.982V173.954V173.927V173.899V173.871V173.844V173.816V173.788V173.76V173.732V173.705V173.677V173.649V173.621V173.593V173.565V173.537V173.508V173.48V173.452V173.424V173.396V173.367V173.339V173.311V173.282V173.254V173.226V173.197V173.169V173.14V173.111V173.083V173.054V173.025V172.997V172.968V172.939V172.91V172.881V172.853V172.824V172.795V172.766V172.737V172.707V172.678V172.649V172.62V172.591V172.562V172.532V172.503V172.474V172.444V172.415V172.385V172.356V172.326V172.297V172.267V172.238V172.208V172.178V172.149V172.119V172.089V172.059V172.029V171.999V171.969V171.939V171.91V171.879V171.849V171.819V171.789V171.759V171.729V171.699V171.668V171.638V171.608V171.577V171.547V171.516V171.486V171.455V171.425V171.394V171.364V171.333V171.302V171.271V171.241V171.21V171.179V171.148V171.117V171.086V171.055V171.024V170.993V170.962V170.931V170.9V170.869V170.838V170.806V170.775V170.744V170.713V170.681V170.65V170.618V170.587V170.555V170.524V170.492V170.461V170.429V170.397V170.365V170.334V170.302V170.27V170.238V170.206V170.174V170.142V170.11V170.078V170.046V170.014V169.982V169.95V169.918V169.885V169.853V169.821V169.789V169.756V169.724V169.691V169.659V169.626V169.594V169.561V169.529V169.496V169.463V169.43V169.398V169.365V169.332V169.299V169.266V169.233V169.2V169.167V169.134V169.101V169.068V169.035V169.012C44.1848 163.343 44.2956 155.29 44.4064 144.852L44.4064 144.852C44.5172 134.242 44.794 124.876 45.2364 116.752L45.2373 116.736L45.2376 116.72C45.4557 106.969 48.0141 99.4325 52.8036 93.9943L52.8144 93.9819L52.8248 93.9693C55.4883 90.7372 59.0205 88.0792 63.4511 86.0087C67.8338 83.9605 73.1141 82.9167 79.3233 82.9167C85.531 82.9167 90.4355 84.0484 94.1111 86.2283L94.1258 86.237L94.1408 86.2452C105.007 92.1989 110.581 103.803 110.582 121.472C110.582 121.473 110.582 121.475 110.582 121.477L109.917 183.594V183.605C109.917 187.874 109.27 190.909 108.106 192.847C106.991 194.703 105.368 195.614 103.102 195.614H87.8037H86.7824L86.8039 196.635L88.4667 275.49L88.4872 276.46L89.4572 276.469L146.326 277L147.326 277.009L147.335 276.008L148 197.154L148.008 196.145H147H131.702C129.804 196.145 128.261 195.41 127.007 193.879C126.313 192.924 125.641 191.617 125.004 189.93C124.496 188.119 124.222 185.238 124.222 181.215C124.222 176.985 124.443 167.443 124.886 152.571C125.108 145.132 125.275 137.164 125.386 128.665C125.607 120.167 125.829 109.37 126.051 96.2755C126.383 83.1738 126.439 72.8887 126.217 65.4284C125.881 51.3237 123.028 38.3576 117.647 26.5428L117.645 26.5384C114.486 19.6936 110.14 13.7447 104.611 8.69875C99.0663 3.53659 91.7096 1 82.649 1C73.4958 1 65.38 4.48243 58.3375 11.3744L58.3361 11.3759C55.3561 14.3039 52.0321 18.9996 48.3591 25.3975L48.359 25.3974L48.3526 25.4089C47.2251 27.4343 46.2685 29.3906 45.4867 31.2767L46.8994 3.64408L46.9531 2.59302H45.9007H3.66513H2.67325L2.66516 3.58486L2.00003 85.0946Z" stroke="white" stroke-width="2"/>
</svg>
