<svg width="150" height="425" viewBox="0 0 150 425" fill="none" xmlns="http://www.w3.org/2000/svg">
<path d="M69.2879 3.56495L69.2924 2.56054H68.288H3H1.99114L2.00004 3.56936L2.7592 89.6115L2.76795 90.6027H3.75916H17.6939C18.3895 90.7657 19.2853 91.1457 20.3968 91.7919C20.576 92.0104 20.8026 92.4476 21.0138 93.2273L21.0157 93.2344L21.0177 93.2413L65.3462 247.941L38.1193 335.056C36.7937 338.236 35.1632 339.442 33.3665 339.442H12.2997H11.2951L11.2997 340.447L11.6793 422.005L11.684 423.008L12.6877 423L79.494 422.439L80.4948 422.431L80.4856 421.43L79.7264 339.312L79.7172 338.321H78.7264H58.9882H58.8436L58.705 338.362C58.351 338.467 58.2421 338.395 58.1842 338.34C57.9992 338.137 57.8264 337.745 57.8525 336.973C57.8791 336.186 58.1112 335.129 58.6002 333.775L58.6036 333.766L58.6069 333.756C59.3739 331.491 63.1779 318.85 70.0057 295.884C73.2953 284.861 77.0278 272.342 81.2031 258.329C85.3788 244.315 89.6177 230.02 93.9198 215.446C98.2218 200.872 102.397 186.578 106.446 172.564C110.621 158.552 114.29 146.127 117.454 135.289C120.743 124.266 123.401 115.296 125.426 108.381C127.448 101.475 128.591 97.5375 128.847 96.5905L128.853 96.57L128.858 96.5493C129.063 95.6411 129.715 94.383 130.945 92.745C132.298 91.1149 133.299 90.6027 133.956 90.6027H148H149V89.6027V3.56054V2.57002L148.01 2.56058L89.1745 2.00005L88.1538 1.99032L88.165 3.01096L89.1139 89.6136L89.1248 90.6027H90.1139H107.195C108.303 90.6027 109.204 91.1114 109.941 92.3546L109.972 92.4079L110.01 92.4568C110.888 93.591 111.141 94.6091 110.961 95.5643C110.713 96.6582 110.027 99.144 108.892 103.057C107.754 106.978 106.299 111.928 104.528 117.906L104.525 117.915L104.523 117.925C102.879 123.901 100.349 132.961 96.9326 145.105C93.6162 156.895 86.539 181.203 75.6994 218.035C69.5764 196.804 64.7704 179.97 61.2809 167.532C57.7381 154.453 54.89 144.172 52.7372 136.691C50.587 129.22 48.6902 122.498 47.0466 116.523C45.4036 110.551 44.0113 105.69 42.87 101.944C41.8601 98.0284 41.2397 95.3647 40.9951 93.92C40.8968 93.3394 40.969 92.9106 41.138 92.5779C41.3089 92.2414 41.6281 91.9067 42.1904 91.6048C43.4428 90.9322 44.736 90.6027 46.0825 90.6027H67.9084H68.904L68.9084 89.6071L69.2879 3.56495Z" stroke="white" stroke-width="2"/>
</svg>
