<svg width="149" height="569" viewBox="0 0 149 569" fill="none" xmlns="http://www.w3.org/2000/svg">
<path d="M22.3918 234.324L23.2371 234.192V233.336V214.5C23.2371 196.669 26.8219 183.48 33.823 174.764C40.7905 166.089 51.2731 161.683 65.4621 161.683C79.651 161.683 90.1337 166.089 97.1011 174.764C104.102 183.48 107.687 196.669 107.687 214.5V233.336C107.687 240.77 106.589 248.209 104.388 255.656L104.384 255.668L104.381 255.68C103.687 258.271 102.706 260.102 101.504 261.278C100.327 262.43 98.8797 263.011 97.0949 263.011H45.2249C39.4351 263.011 34.141 265.747 29.3564 271.008C24.5869 276.252 20.2754 284.051 16.3898 294.334L16.3888 294.336C6.10888 321.772 1 361.739 1 414.16C1 465.136 5.27258 503.478 13.8721 529.108C22.4639 554.716 35.5266 568 53.2805 568C59.6978 568 66.0182 565.066 72.2271 559.397C78.4301 553.733 84.5826 545.288 90.7004 534.117C95.827 524.946 99.7815 513.879 102.579 500.934V562.695V563.72L103.604 563.694L146.632 562.618L147.605 562.594L147.607 561.621L148 400.709L148.002 399.706H147H130.103C129.35 399.706 128.665 399.402 128.016 398.666C127.342 397.9 126.72 396.677 126.2 394.908C125.16 391.371 124.619 385.971 124.619 378.641L124.619 378.638L124.423 310.291L124.03 189.742L124.03 189.741L123.833 110.634C123.833 110.633 123.833 110.632 123.833 110.631C123.833 86.5077 120.678 64.5192 114.356 44.675C110.92 33.8162 106.153 24.5547 100.041 16.9103C93.9635 9.14448 86.0807 5.22901 76.4648 5.22901C66.9728 5.22901 57.1246 9.68526 46.9388 18.3798C37.7703 25.9825 30.1536 38.5703 24.023 56.0145V4.07634V3.15366L23.1033 3.07957L9.7429 2.00323L8.66808 1.91664L8.66261 2.99493L7.48375 235.483L7.4778 236.658L8.63838 236.477L22.3918 234.324ZM82.767 299.992L82.7791 299.992L102.596 299.454C102.6 299.454 102.603 299.454 102.607 299.454C102.902 299.459 103.424 299.68 104.087 300.835C104.735 301.966 105.363 303.739 105.945 306.217C107.104 311.153 107.687 316.636 107.687 322.672C107.687 352.751 103.596 375.154 95.5285 390.004C91.5029 397.413 86.4988 402.921 80.5345 406.581C74.5725 410.239 67.5955 412.084 59.5678 412.084C47.835 412.084 39.1297 407.441 33.3009 398.156C27.4231 388.794 24.416 374.622 24.416 355.5C24.416 348.373 24.9364 341.428 25.9762 334.663L25.9773 334.656C27.6724 323.048 30.3154 314.463 33.8428 308.805C37.3443 303.189 41.659 300.531 46.7967 300.531H46.8042L46.8117 300.53L82.767 299.992Z" stroke="white" stroke-width="2"/>
</svg>
