<svg width="147" height="421" viewBox="0 0 147 421" fill="none" xmlns="http://www.w3.org/2000/svg">
<path d="M1 315.448L3.10775 100.8C3.10775 65.4209 11.2265 39.1509 27.464 21.9896C40.735 7.99653 55.5674 1 71.961 1C88.5108 1 100.845 3.24417 108.964 7.73251C117.239 11.9568 123.874 17.5013 128.87 24.3658C133.866 31.2303 137.536 39.0189 139.877 47.7316C142.376 56.1802 144.015 64.6289 144.796 73.0775C145.732 81.2621 146.123 89.0507 145.967 96.4433C145.967 103.572 145.967 111.36 145.967 119.809C145.967 128.258 145.342 157.3 144.093 206.936C144.093 206.936 102.328 208.52 18.7988 211.688V242.578C18.7988 281.917 38.4712 301.587 77.8159 301.587C94.2095 301.587 106.622 298.683 115.053 292.874C123.484 287.066 127.699 279.541 127.699 270.301V245.747L143.625 242.578C142.376 281.653 141.751 312.412 141.751 334.854C141.751 357.295 139.487 373.796 134.959 384.357C130.588 394.654 124.733 402.443 117.395 407.723C106.153 415.908 88.823 420 65.4036 420C22.4679 420 1 385.149 1 315.448ZM128.402 175.649L128.636 154.264C128.636 128.654 111.852 115.849 78.2843 115.849C38.315 115.849 18.3304 138.026 18.3304 182.382L128.168 179.214C128.168 178.686 128.246 177.497 128.402 175.649Z" stroke="white" stroke-width="2"/>
</svg>
