<svg width="149" height="133" viewBox="0 0 149 133" fill="none" xmlns="http://www.w3.org/2000/svg">
<path d="M1.00051 98.7791L1 98.795V98.811C1 104.351 2.3884 109.243 5.19327 113.449C7.99395 117.648 12.1683 121.106 17.6538 123.847C28.5967 129.316 44.8847 132 66.4035 132C89.8366 132 107.258 130.741 118.612 128.196C126.033 126.552 132.027 124.112 136.543 120.838C141.395 117.354 143.751 111.93 143.751 104.785C143.751 97.927 144.372 88.4967 145.619 76.4795L145.741 75.3059L144.563 75.3781L128.638 76.3535L127.699 76.411V77.3516V84.9112C127.699 85.766 127.074 86.7971 125.056 87.906C123.077 88.9938 120.028 89.9956 115.845 90.8828C107.519 92.649 95.1902 93.5435 78.8159 93.5435C59.1699 93.5435 44.537 92.0287 34.8473 89.0459C25.0947 86.0438 20.7988 81.7215 20.7988 76.3762V67.8542L113.781 66.7684L137.274 66.494L143.147 66.4254L144.615 66.4083L144.982 66.404L145.074 66.4029L145.097 66.4027L145.103 66.4026L145.104 66.4026C145.104 66.4026 145.104 66.4026 145.104 66.3355L145.105 66.4026L146.015 66.3919L146.09 65.4841C147.337 50.2275 147.967 41.2317 147.967 38.5784V38.5632V38.548V38.5327V38.5175V38.5023V38.4871V38.4719V38.4567V38.4415V38.4263V38.4111V38.3959V38.3807V38.3655V38.3504V38.3352V38.32V38.3049V38.2897V38.2746V38.2594V38.2443V38.2291V38.214V38.1989V38.1838V38.1686V38.1535V38.1384V38.1233V38.1082V38.0931V38.078V38.0629V38.0479V38.0328V38.0177V38.0026V37.9876V37.9725V37.9575V37.9424V37.9274V37.9123V37.8973V37.8823V37.8673V37.8522V37.8372V37.8222V37.8072V37.7922V37.7772V37.7622V37.7472V37.7322V37.7173V37.7023V37.6873V37.6724V37.6574V37.6424V37.6275V37.6125V37.5976V37.5827V37.5677V37.5528V37.5379V37.523V37.5081V37.4932V37.4782V37.4633V37.4485V37.4336V37.4187V37.4038V37.3889V37.3741V37.3592V37.3443V37.3295V37.3146V37.2998V37.2849V37.2701V37.2552V37.2404V37.2256V37.2108V37.196V37.1811V37.1663V37.1515V37.1367V37.122V37.1072V37.0924V37.0776V37.0628V37.0481V37.0333V37.0185V37.0038V36.989V36.9743V36.9595V36.9448V36.9301V36.9153V36.9006V36.8859V36.8712V36.8565V36.8418V36.8271V36.8124V36.7977V36.783V36.7683V36.7537V36.739V36.7243V36.7097V36.695V36.6804V36.6657V36.6511V36.6364V36.6218V36.6072V36.5925V36.5779V36.5633V36.5487V36.5341V36.5195V36.5049V36.4903V36.4757V36.4611V36.4465V36.432V36.4174V36.4028V36.3883V36.3737V36.3592V36.3446V36.3301V36.3155V36.301V36.2865V36.272V36.2574V36.2429V36.2284V36.2139V36.1994V36.1849V36.1704V36.156V36.1415V36.127V36.1125V36.0981V36.0836V36.0691V36.0547V36.0402V36.0258V36.0114V35.9969V35.9825V35.9681V35.9536V35.9392V35.9248V35.9104V35.896V35.8816V35.8672V35.8528V35.8385V35.8241V35.8097V35.7953V35.781V35.7666V35.7523V35.7379V35.7236V35.7092V35.6949V35.6805V35.6662V35.6519V35.6376V35.6233V35.609V35.5947V35.5804V35.5661V35.5518V35.5375V35.5232V35.5089V35.4947V35.4804V35.4661V35.4519V35.4376V35.4234V35.4091V35.3949V35.3807V35.3664V35.3522V35.338V35.3238V35.3096V35.2954V35.2812V35.267V35.2528V35.2386V35.2244V35.2102V35.196V35.1819V35.1677V35.1535V35.1394V35.1252V35.1111V35.097V35.0828V35.0687V35.0546V35.0404V35.0263V35.0122V34.9981V34.984V34.9699V34.9558V34.9417V34.9276V34.9135V34.8995V34.8854V34.8713V34.8573V34.8432V34.8292V34.8151V34.8011V34.787V34.773V34.759V34.7449V34.7309V34.7169V34.7029V34.6889V34.6749V34.6609V34.6469V34.6329V34.6189V34.6049V34.591V34.577V34.563V34.5491V34.5351V34.5212V34.5072V34.4933V34.4794V34.4654V34.4515V34.4376V34.4237V34.4097V34.3958V34.3819V34.368V34.3541V34.3402V34.3264V34.3125V34.2986V34.2847V34.2709V34.257V34.2431V34.2293V34.2154V34.2016V34.1878V34.1739V34.1601V34.1463V34.1325V34.1186V34.1048V34.091V34.0772V34.0634V34.0496V34.0358V34.0221V34.0083V33.9945V33.9807V33.967V33.9532V33.9395V33.9257V33.912V33.8982V33.8845V33.8708V33.857V33.8433V33.8296V33.8159V33.8022V33.7885V33.7748V33.7611V33.7474V33.7337V33.72V33.7063V33.6927V33.679V33.6653V33.6517V33.638V33.6244V33.6107V33.5971V33.5835V33.5698V33.5562V33.5426V33.529V33.5154V33.5018V33.4882V33.4746V33.461V33.4474V33.4338V33.4202V33.4066V33.3931V33.3795V33.366V33.3524V33.3389V33.3253V33.3118V33.2982V33.2847V33.2712V33.2576V33.2441V33.2306V33.2171V33.2036V33.1901V33.1766V33.1631V33.1496V33.1362V33.1227V33.1092V33.0957V33.0823V33.0688V33.0554V33.0419V33.0285V33.015V33.0016V32.9882V32.9748V32.9613V32.9479V32.9345V32.9211V32.9077V32.8943V32.8809V32.8675V32.8541V32.8408V32.8274V32.814V32.8007V32.7873V32.7739V32.7606V32.7472V32.7339V32.7206V32.7072V32.6939V32.6806V32.6673V32.654V32.6406V32.6273V32.614V32.6007V32.5875V32.5742V32.5609V32.5476V32.5343V32.5211V32.5078V32.4946V32.4813V32.4681V32.4548V32.4416V32.4283V32.4151V32.4019V32.3887V32.3755V32.3622V32.349V32.3358V32.3226V32.3094V32.2963V32.2831V32.2699V32.2567V32.2436V32.2304V32.2172V32.2041V32.1909V32.1778V32.1646V32.1515V32.1384V32.1252V32.1121V32.099V32.0859V32.0728V32.0597V32.0466V32.0335V32.0204V32.0073V31.9942V31.9812V31.9681V31.955V31.942V31.9289V31.9158V31.9028V31.8898V31.8767V31.8637V31.8506V31.8376V31.8246V31.8116V31.7986V31.7856V31.7726V31.7596V31.7466V31.7336V31.7206V31.7076V31.6947V31.6817V31.6687V31.6558V31.6428V31.6299V31.6169V31.604V31.591V31.5781V31.5652V31.5523V31.5393V31.5264V31.5135V31.5006V31.4877V31.4748V31.4619V31.449V31.4362V31.4233V31.4183C148.127 28.9976 147.709 26.4788 146.744 23.8725C145.904 21.0946 144.17 18.3761 141.615 15.7118C139.134 12.8787 135.319 10.4126 130.26 8.27277C125.161 6.11586 118.439 4.39294 110.125 3.08589C101.92 1.69002 89.5185 1 72.961 1C56.4804 1 41.5417 3.16546 28.1552 7.51105L28.1546 7.51127C19.9537 10.1798 13.7028 13.5866 9.49106 17.7823C5.25822 21.9991 3.11178 26.9895 3.10776 32.7098L1.00051 98.7791ZM125.913 44.8293C127.827 46.1781 128.63 47.625 128.636 49.1693L128.407 55.6194C128.383 55.7087 128.36 55.7939 128.34 55.875L20.3712 56.8338C20.8386 51.1324 25.3368 46.6057 34.6422 43.4264C44.475 40.0669 59.3298 38.3592 79.2843 38.3592C96.0492 38.3592 108.543 39.3455 116.82 41.2894C120.964 42.2629 123.967 43.4583 125.913 44.8293Z" stroke="white" stroke-width="2"/>
</svg>
