<svg width="146" height="567" viewBox="0 0 146 567" fill="none" xmlns="http://www.w3.org/2000/svg">
<path d="M29.933 208.128C29.933 184.081 25.6097 172.058 16.963 172.058H1L1.66513 4.27907H43.9007L41.9053 84.6163C41.9053 74.7791 43.679 63.3023 47.2263 50.186C50.8845 37.0698 54.1547 27.5969 57.037 21.7674C63.9099 7.92248 71.7806 1 80.649 1C89.5173 1 96.612 6.10077 101.933 16.3023C107.365 26.5039 111.633 38.5271 114.737 52.3721C120.058 76.4186 122.885 102.833 123.217 131.616C123.439 146.919 123.383 168.05 123.051 195.012C122.829 221.973 122.607 244.198 122.386 261.686C122.275 279.174 122.109 295.57 121.887 310.872C121.443 341.477 121.222 361.151 121.222 369.895C121.222 378.275 121.499 384.469 122.053 388.477C122.718 392.12 123.439 395.035 124.215 397.221C125.656 400.864 127.485 402.686 129.702 402.686H145L144.335 565L87.4665 563.907L85.8037 401.593H101.102C106.312 401.593 108.917 392.667 108.917 374.814L109.582 246.93C109.582 210.132 103.928 185.357 92.6212 172.605C88.7413 167.868 83.642 165.5 77.3233 165.5C71.0046 165.5 65.5727 167.686 61.0277 172.058C56.4827 176.43 52.8245 182.078 50.0531 189C45.0647 200.659 42.4596 216.69 42.2379 237.093C41.7945 253.853 41.5173 273.163 41.4065 295.023C41.2956 316.519 41.1848 333.097 41.0739 344.756C41.0739 356.415 41.0739 364.977 41.0739 370.442C41.0739 391.938 43.8453 402.686 49.388 402.686H63.6882L64.3534 563.907L2.99538 565L2.66282 401.593H20.455C26.1085 401.593 28.9353 393.76 28.9353 378.093L29.933 208.128Z" stroke="white" stroke-width="2"/>
</svg>
