<svg width="147" height="131" viewBox="0 0 147 131" fill="none" xmlns="http://www.w3.org/2000/svg">
<path d="M2.67164 101.972L1 30.4962C1 20.5417 7.92537 12.9943 21.7761 7.85389C34.3532 3.28463 52.2637 1 75.5075 1C98.9104 1 116.662 5.32448 128.761 13.9734V1.24478H145L142.851 58.1565H126.851V48.3653C126.851 41.1034 113.637 37.1461 87.209 36.4934C80.8408 36.3302 74.1542 36.2486 67.1493 36.2486C60.3035 36.2486 53.5373 36.575 46.8507 37.2277C40.3234 37.7989 34.99 38.8188 30.8507 40.2875C22.7313 43.1433 18.6716 48.2429 18.6716 55.5863L18.4328 67.0911L18.194 81.166C18.194 86.9592 21.7761 90.9981 28.9403 93.2827C37.0597 96.0569 51.9453 97.444 73.597 97.444C107.826 97.444 125.418 93.2827 126.373 84.9602L126.851 75.1689L143.328 74.9241C143.169 77.9431 143.01 80.8805 142.851 83.7362C142.532 89.2846 142.373 95.3226 142.373 101.85C142.373 108.296 140.542 113.477 136.881 117.394C133.219 121.229 128.204 124.084 121.836 125.961C112.761 128.654 98.4328 130 78.8507 130C59.2687 130 45.0199 129.347 36.1045 128.042C27.1891 126.736 20.2637 124.86 15.3284 122.412C6.89055 118.332 2.67164 111.519 2.67164 101.972Z" stroke="white" stroke-width="2"/>
</svg>
