<svg width="148" height="293" viewBox="0 0 148 293" fill="none" xmlns="http://www.w3.org/2000/svg">
<path d="M28.5424 58.0742L2 59.207L2.65537 2.75521L43.6158 2L43.2881 124.91C48.3126 115.218 56.0678 107.603 66.5537 102.065C72.1243 99.296 79.0057 97.9115 87.1977 97.9115C101.834 97.9115 112.429 103.953 118.983 116.036C124.008 124.973 126.52 136.742 126.52 151.342L125.537 230.828C125.537 232.968 125.755 234.478 126.192 235.359C126.738 236.24 127.831 236.681 129.469 236.681H147V292L91.6215 291.622V235.926H108.006C109.753 235.926 111.173 235.296 112.266 234.038C113.467 232.779 114.068 231.08 114.068 228.94V177.208C114.068 170.789 111.337 165.251 105.876 160.594C99.6497 155.181 92.2768 152.475 83.7571 152.475C75.2373 152.475 68.629 153.482 63.9322 155.496C59.3446 157.384 55.5217 159.839 52.4633 162.859C46.1281 168.901 42.9605 175.446 42.9605 182.495V230.073C42.9605 233.975 44.6535 235.926 48.0395 235.926H63.113V291.622L8.38983 292L8.06215 236.303H26.5763C29.1977 236.303 30.5085 234.352 30.5085 230.451L31.4915 61.4727C31.4915 60.0881 31.2731 59.207 30.8362 58.8294C30.5085 58.326 29.7439 58.0742 28.5424 58.0742Z" stroke="white" stroke-width="2"/>
</svg>
