<svg width="923" height="157" viewBox="0 0 923 157" fill="none" xmlns="http://www.w3.org/2000/svg">
    <defs>
        <filter id="invert-filter">
            <feColorMatrix type="matrix" values="-1 0 0 0 1  0 -1 0 0 1  0 0 -1 0 1  0 0 0 1 0" />
        </filter>

        <filter id="lightMe1">
            <feDiffuseLighting in="SourceGraphic" result="light" lighting-color="white">
                <fePointLight x="300" y="60" z="20" />
            </feDiffuseLighting>

            <feComposite
                in="SourceGraphic"
                in2="light"
                operator="arithmetic"
                k1="1"
                k2="1"
                k3="0"
                k4="0" />
        </filter>

        <filter id="water">
            <feTurbulence type="fractalNoise" baseFrequency='0.03 0.06' numOctaves="10"
                result='noise' />
            <feDiffuseLighting in='noise' lighting-color='#e2e1db' surfaceScale='4' result="texture">
                <feDistantLight azimuth='45' elevation='35' />
            </feDiffuseLighting>
            <feComposite in="" in2="SourceGraphic" operator="in" />
        </filter>

        <filter id="noise" x="0" y="0" width="100%" height="100%">
            <feTurbulence id="feTurbulence" baseFrequency="0.05" />
        </filter>


    </defs>

    <g>
        <path
            d="M33.4569 104.448C37.9369 105.949 42.2263 106.7 46.325 106.7C50.4237 106.7 53.6646 105.403 56.0475 102.809C58.5258 100.079 60.3369 95.4364 61.4807 88.8828L78.6381 89.702C77.2083 101.99 75.302 112.162 72.919 120.217H2.71659C0.90553 102.741 0 84.6503 0 65.9453C0 47.2403 0.667232 31.1977 2.0017 17.8175H43.1795C36.8884 52.3603 33.6476 81.237 33.4569 104.448Z"
            fill="#e0fb60" />
        <path
            d="M179.998 118.579V120.217H146.827C146.445 112.435 145.635 104.379 144.396 96.0508C138.486 104.652 131.814 112.708 124.379 120.217H91.0651C90.3979 114.619 90.0643 107.246 90.0643 98.0988C90.0643 88.8146 91.0175 79.5303 92.9239 70.2461C99.7868 67.3789 106.364 62.532 112.655 55.7054C119.041 48.8787 123.664 41.506 126.524 33.5871C123.95 27.8527 121.234 22.5962 118.374 17.8175H165.843C175.279 47.1721 179.998 80.7591 179.998 118.579ZM141.822 81.1005C139.344 68.949 136.103 57.4803 132.1 46.6942C127.62 65.5357 125.046 83.3533 124.379 100.147C131.242 95.0951 137.057 88.7463 141.822 81.1005Z"
            fill="#e0fb60" />
        <path
            d="M278.129 21.7087C274.888 22.801 272.172 23.3471 269.979 23.3471C267.787 23.3471 265.69 23.1423 263.688 22.7327C260.733 27.7844 258.065 34.5428 255.682 43.0078C253.299 51.4729 251.487 59.0504 250.248 65.7405C249.105 72.4306 247.818 80.6226 246.388 90.3164C239.144 139.741 243.052 119.844 235.808 140.597C231.042 142.645 213.979 155.089 206.926 157C216.458 133.653 224.179 151.074 230.088 120.217H200.492C192.962 85.2647 189.054 51.1315 188.768 17.8175H230.517C228.516 30.5151 227.515 44.0318 227.515 58.3678C227.515 72.5672 229.135 88.8146 232.376 107.11C233.043 103.424 234.187 97.0065 235.808 87.8588C237.428 78.5746 238.619 71.9528 239.382 67.9933C240.145 64.0339 241.288 58.436 242.813 51.1998C244.434 43.9636 245.864 38.5705 247.103 35.0207C248.437 31.3343 250.058 27.2383 251.964 22.7327C255.396 14.6773 259.923 9.21596 265.547 6.34877C267.167 5.6661 270.456 4.98344 275.413 4.30078C280.369 3.48158 283.944 2.04799 286.136 0C283.562 8.46503 280.893 15.7013 278.129 21.7087Z"
            fill="#e0fb60" />
        <path
            d="M375.616 17.8175C376.188 32.1535 376.474 47.3086 376.474 63.2829C376.474 79.1207 375.997 98.0988 375.044 120.217H361.318C342.826 106.018 325.86 86.6983 310.418 62.2589C311.18 71.4066 311.562 80.8274 311.562 90.5212C311.562 100.079 311.323 109.977 310.847 120.217H294.118C296.025 103.424 296.978 87.9271 296.978 73.7277C296.978 59.3918 296.501 48.0595 295.548 39.731C291.735 31.5391 288.733 24.2346 286.54 17.8175H327.146C331.15 27.6479 336.583 37.8196 343.446 48.3326C350.404 58.7091 357.029 66.8328 363.32 72.7037C363.32 52.7699 361.747 34.4745 358.602 17.8175H375.616Z"
            fill="#e0fb60" />
        <path
            d="M445.847 58.9822L459.287 60.211C460.621 60.211 461.622 60.1427 462.289 60.0062L455.569 78.0285H454.282C452.471 78.0285 449.898 77.3458 446.561 75.9805C443.225 74.4786 440.842 73.7277 439.413 73.7277C435.504 73.7277 432.407 77.3458 430.119 84.5821C429.738 91.2722 429.452 97.9623 429.261 104.652C434.218 106.018 438.126 106.7 440.985 106.7H442.272C446.371 106.7 449.612 105.403 451.995 102.809C454.473 100.215 456.236 95.5729 457.285 88.8828L474.442 89.9068C473.012 101.649 471.106 111.752 468.723 120.217H398.521C396.614 101.785 395.661 83.4898 395.661 65.3309C395.661 47.1721 396.328 31.3343 397.663 17.8175H474.299C472.583 32.5631 471.058 42.9396 469.724 48.947C464.1 49.3566 458.953 49.6297 454.282 49.7662C455.045 46.6259 455.426 43.6905 455.426 40.9598C455.426 34.4063 451.995 31.1295 445.132 31.1295C442.558 31.1295 439.698 31.5391 436.553 32.3583C434.456 45.3289 432.836 56.7294 431.692 66.5597C435.504 61.508 440.223 58.9822 445.847 58.9822Z"
            fill="#e0fb60" />
        <path
            d="M598.721 30.3103C595.385 29.4911 592.144 29.0815 588.998 29.0815C585.948 29.0815 582.231 29.8324 577.846 31.3343C576.416 39.9358 575.702 48.3326 575.702 56.5246C575.702 77.6872 582.279 93.9345 595.433 105.267C604.202 96.9383 612.113 86.5618 619.167 74.1373C619.453 79.5986 619.691 87.9271 619.882 99.1228C612.828 107.042 605.632 113.254 598.292 117.76C590.953 122.265 581.802 124.518 570.84 124.518H567.552C558.973 119.193 552.205 111.342 547.249 100.966C542.388 90.5895 539.957 79.6669 539.957 68.1981C539.957 52.9065 544.342 39.9358 553.111 29.2863C561.88 18.5002 574.605 13.1071 591.286 13.1071C600.627 13.1071 610.398 14.8138 620.597 18.2271C619.072 26.8287 617.165 34.9524 614.878 42.5982C608.872 43.4174 602.677 43.827 596.29 43.827C597.244 40.0041 598.054 35.4985 598.721 30.3103Z"
            fill="#e0fb60" />
        <path
            d="M725.856 34.8159C725.856 61.5763 724.045 90.0434 720.423 120.217H686.251C687.776 104.106 688.777 86.7666 689.253 68.1981C684.297 63.8291 678.768 61.1667 672.668 60.211C672.096 80.2813 670.571 100.283 668.093 120.217H635.636C636.876 106.837 637.495 90.8626 637.495 72.2941C637.495 53.5891 636.637 35.4303 634.922 17.8175H672.668C672.858 23.4154 672.954 31.7439 672.954 42.803C678.482 45.2606 683.963 48.6057 689.396 52.8382C689.396 40.1406 689.063 28.4671 688.396 17.8175H725.57C725.76 25.4634 725.856 31.1295 725.856 34.8159Z"
            fill="#e0fb60" />
        <path
            d="M792.139 58.9822L805.579 60.211C806.913 60.211 807.914 60.1427 808.581 60.0062L801.861 78.0285H800.574C798.763 78.0285 796.19 77.3458 792.854 75.9805C789.517 74.4786 787.135 73.7277 785.705 73.7277C781.797 73.7277 778.699 77.3458 776.411 84.5821C776.03 91.2722 775.744 97.9623 775.553 104.652C780.51 106.018 784.418 106.7 787.278 106.7H788.564C792.663 106.7 795.904 105.403 798.287 102.809C800.765 100.215 802.529 95.5729 803.577 88.8828L820.735 89.9068C819.305 101.649 817.398 111.752 815.015 120.217H744.813C742.907 101.785 741.953 83.4898 741.953 65.3309C741.953 47.1721 742.621 31.3343 743.955 17.8175H820.592C818.876 32.5631 817.351 42.9396 816.016 48.947C810.392 49.3566 805.245 49.6297 800.574 49.7662C801.337 46.6259 801.718 43.6905 801.718 40.9598C801.718 34.4063 798.287 31.1295 791.424 31.1295C788.85 31.1295 785.991 31.5391 782.845 32.3583C780.748 45.3289 779.128 56.7294 777.984 66.5597C781.797 61.508 786.515 58.9822 792.139 58.9822Z"
            fill="#e0fb60" />
        <path
            d="M922.142 17.8175C922.714 32.1535 923 47.3086 923 63.2829C923 79.1207 922.523 98.0988 921.57 120.217H907.844C889.352 106.018 872.386 86.6983 856.944 62.2589C857.707 71.4066 858.088 80.8274 858.088 90.5212C858.088 100.079 857.849 109.977 857.373 120.217H840.644C842.551 103.424 843.504 87.9271 843.504 73.7277C843.504 59.3918 843.027 48.0595 842.074 39.731C838.261 31.5391 835.259 24.2346 833.067 17.8175H873.672C877.676 27.6479 883.109 37.8196 889.972 48.3326C896.93 58.7091 903.555 66.8328 909.846 72.7037C909.846 52.7699 908.273 34.4745 905.128 17.8175H922.142Z"
            fill="#e0fb60" />
    </g>
</svg>