<svg width="180" height="29" viewBox="0 0 180 29" fill="none" xmlns="http://www.w3.org/2000/svg">
    <path d="M5.45986 23H0.359863V0.219971H5.45986V23Z" fill="#F6FFC9" />
    <path
        d="M25.5834 23H20.8234V18.954L20.5514 18.886V12.936C20.5514 11.8253 20.2681 11.0773 19.7014 10.692C19.1574 10.3066 18.2054 10.114 16.8454 10.114C15.5534 10.114 14.6241 10.3066 14.0574 10.692C13.4907 11.0773 13.2074 11.7573 13.2074 12.732V12.868H8.07339V12.766C8.07339 11.3606 8.44739 10.1253 9.19539 9.05997C9.94339 7.97197 10.9974 7.1333 12.3574 6.54397C13.7401 5.93197 15.3607 5.62597 17.2194 5.62597C19.1234 5.62597 20.6874 5.93197 21.9114 6.54397C23.1581 7.15597 24.0761 8.0173 24.6654 9.12797C25.2774 10.216 25.5834 11.508 25.5834 13.004V23ZM13.6154 23.34C11.7794 23.34 10.3401 22.932 9.29739 22.116C8.25473 21.3 7.73339 20.1893 7.73339 18.784C7.73339 17.9226 7.93739 17.186 8.34539 16.574C8.75339 15.962 9.36539 15.4746 10.1814 15.112C10.9974 14.7266 12.0174 14.466 13.2414 14.33L20.8914 13.548V16.472L14.6354 17.186C14.0234 17.2313 13.5701 17.356 13.2754 17.56C13.0034 17.7413 12.8674 18.036 12.8674 18.444C12.8674 18.8973 13.0487 19.226 13.4114 19.43C13.7741 19.634 14.3294 19.736 15.0774 19.736C16.3014 19.736 17.3101 19.6226 18.1034 19.396C18.8967 19.1693 19.4974 18.8066 19.9054 18.308C20.3361 17.7866 20.5514 17.0953 20.5514 16.234L21.0274 16.2V19.09H20.5514C20.1661 20.4046 19.3841 21.4473 18.2054 22.218C17.0494 22.966 15.5194 23.34 13.6154 23.34Z"
        fill="#F6FFC9" />
    <path
        d="M31.6825 28.78H28.8945V24.156H33.0765C33.7111 24.156 34.1871 24.0653 34.5045 23.884C34.8218 23.7026 35.0825 23.3853 35.2865 22.932L36.0005 21.266L35.4905 23.646L26.8885 5.96597H32.6685L36.2725 13.752L37.7005 17.764H38.0405L39.4005 13.718L42.6305 5.96597H48.3085L39.8765 24.224C39.3325 25.4026 38.6978 26.3206 37.9725 26.978C37.2471 27.658 36.3745 28.1226 35.3545 28.372C34.3345 28.644 33.1105 28.78 31.6825 28.78Z"
        fill="#F6FFC9" />
    <path
        d="M68.6216 23H63.5216V14.092C63.5216 12.7093 63.2043 11.7233 62.5696 11.134C61.935 10.522 60.8356 10.216 59.2716 10.216C57.6396 10.216 56.495 10.556 55.8376 11.236C55.203 11.8933 54.8856 12.9473 54.8856 14.398H54.2396L53.8656 11.202H54.8176C54.9763 10.25 55.3163 9.35464 55.8376 8.51597C56.359 7.65464 57.0956 6.9633 58.0476 6.44197C59.0223 5.89797 60.2576 5.62597 61.7536 5.62597C63.295 5.62597 64.5756 5.93197 65.5956 6.54397C66.6156 7.1333 67.375 7.93797 67.8736 8.95797C68.3723 9.97797 68.6216 11.1226 68.6216 12.392V23ZM54.8856 23H49.7856V5.96597H54.5116V11.27L54.8856 11.44V23Z"
        fill="#F6FFC9" />
    <path
        d="M80.4957 23.34C78.6143 23.34 76.9483 23.0226 75.4977 22.388C74.047 21.7533 72.925 20.7786 72.1317 19.464C71.3383 18.1493 70.9417 16.4946 70.9417 14.5C70.9417 12.6866 71.3383 11.1226 72.1317 9.80797C72.925 8.47064 74.0243 7.4393 75.4297 6.71397C76.8577 5.98864 78.5123 5.62597 80.3937 5.62597C82.2523 5.62597 83.873 5.9433 85.2557 6.57797C86.661 7.21264 87.749 8.1533 88.5197 9.39997C89.2903 10.624 89.6757 12.12 89.6757 13.888C89.6757 14.1826 89.6643 14.4546 89.6417 14.704C89.619 14.9533 89.585 15.2253 89.5397 15.52H74.2397V12.834H85.9357L84.7797 14.5C84.7797 14.2733 84.7797 14.058 84.7797 13.854C84.7797 13.65 84.7797 13.446 84.7797 13.242C84.7797 11.95 84.4283 11.0206 83.7257 10.454C83.023 9.8873 81.8783 9.60397 80.2917 9.60397C78.569 9.60397 77.3677 9.94397 76.6877 10.624C76.0077 11.2813 75.6677 12.3353 75.6677 13.786V15.078C75.6677 16.5286 76.0077 17.594 76.6877 18.274C77.3677 18.9313 78.5803 19.26 80.3257 19.26C81.8217 19.26 82.8757 19.0673 83.4877 18.682C84.0997 18.2966 84.4057 17.7413 84.4057 17.016V16.676H89.5057V17.05C89.5057 18.274 89.1317 19.362 88.3837 20.314C87.6357 21.266 86.5817 22.014 85.2217 22.558C83.8843 23.0793 82.309 23.34 80.4957 23.34Z"
        fill="#F6FFC9" />
    <path
        d="M106.662 23.34C104.736 23.34 103.047 22.9773 101.596 22.252C100.146 21.5266 99.0238 20.5066 98.2305 19.192C97.4598 17.8546 97.0745 16.2906 97.0745 14.5C97.0745 12.6866 97.4598 11.1226 98.2305 9.80797C99.0238 8.47064 100.146 7.4393 101.596 6.71397C103.047 5.98864 104.736 5.62597 106.662 5.62597C108.498 5.62597 110.108 5.93197 111.49 6.54397C112.873 7.15597 113.95 8.0173 114.72 9.12797C115.491 10.216 115.876 11.4966 115.876 12.97V13.446H110.81V13.174C110.81 12.086 110.436 11.3266 109.688 10.896C108.94 10.4426 107.898 10.216 106.56 10.216C105.042 10.216 103.92 10.5333 103.194 11.168C102.492 11.8026 102.14 12.9133 102.14 14.5C102.14 16.0413 102.492 17.1406 103.194 17.798C103.92 18.4326 105.042 18.75 106.56 18.75C107.898 18.75 108.94 18.5346 109.688 18.104C110.436 17.6506 110.81 16.88 110.81 15.792V15.52H115.876V15.996C115.876 17.4693 115.491 18.7613 114.72 19.872C113.95 20.96 112.873 21.81 111.49 22.422C110.108 23.034 108.498 23.34 106.662 23.34Z"
        fill="#F6FFC9" />
    <path
        d="M137.429 23H132.329V14.092C132.329 12.664 131.989 11.6666 131.309 11.1C130.651 10.5106 129.518 10.216 127.909 10.216C126.775 10.216 125.88 10.3746 125.223 10.692C124.565 11.0093 124.101 11.4853 123.829 12.12C123.557 12.732 123.421 13.514 123.421 14.466H122.673L122.741 11.168H123.693C123.874 10.1933 124.225 9.28664 124.747 8.44797C125.268 7.6093 126.005 6.9293 126.957 6.40797C127.931 5.88664 129.144 5.62597 130.595 5.62597C132.113 5.62597 133.383 5.93197 134.403 6.54397C135.423 7.15597 136.182 7.9833 136.681 9.02597C137.179 10.0686 137.429 11.2473 137.429 12.562V23ZM123.421 23H118.321V0.219971H123.421V23Z"
        fill="#F6FFC9" />
    <path
        d="M149.296 23.34C147.415 23.34 145.749 23.0226 144.298 22.388C142.848 21.7533 141.726 20.7786 140.932 19.464C140.139 18.1493 139.742 16.4946 139.742 14.5C139.742 12.6866 140.139 11.1226 140.932 9.80797C141.726 8.47064 142.825 7.4393 144.23 6.71397C145.658 5.98864 147.313 5.62597 149.194 5.62597C151.053 5.62597 152.674 5.9433 154.056 6.57797C155.462 7.21264 156.55 8.1533 157.32 9.39997C158.091 10.624 158.476 12.12 158.476 13.888C158.476 14.1826 158.465 14.4546 158.442 14.704C158.42 14.9533 158.386 15.2253 158.34 15.52H143.04V12.834H154.736L153.58 14.5C153.58 14.2733 153.58 14.058 153.58 13.854C153.58 13.65 153.58 13.446 153.58 13.242C153.58 11.95 153.229 11.0206 152.526 10.454C151.824 9.8873 150.679 9.60397 149.092 9.60397C147.37 9.60397 146.168 9.94397 145.488 10.624C144.808 11.2813 144.468 12.3353 144.468 13.786V15.078C144.468 16.5286 144.808 17.594 145.488 18.274C146.168 18.9313 147.381 19.26 149.126 19.26C150.622 19.26 151.676 19.0673 152.288 18.682C152.9 18.2966 153.206 17.7413 153.206 17.016V16.676H158.306V17.05C158.306 18.274 157.932 19.362 157.184 20.314C156.436 21.266 155.382 22.014 154.022 22.558C152.685 23.0793 151.11 23.34 149.296 23.34Z"
        fill="#F6FFC9" />
    <path
        d="M179.725 23H174.625V14.092C174.625 12.7093 174.308 11.7233 173.673 11.134C173.038 10.522 171.939 10.216 170.375 10.216C168.743 10.216 167.598 10.556 166.941 11.236C166.306 11.8933 165.989 12.9473 165.989 14.398H165.343L164.969 11.202H165.921C166.08 10.25 166.42 9.35464 166.941 8.51597C167.462 7.65464 168.199 6.9633 169.151 6.44197C170.126 5.89797 171.361 5.62597 172.857 5.62597C174.398 5.62597 175.679 5.93197 176.699 6.54397C177.719 7.1333 178.478 7.93797 178.977 8.95797C179.476 9.97797 179.725 11.1226 179.725 12.392V23ZM165.989 23H160.889V5.96597H165.615V11.27L165.989 11.44V23Z"
        fill="#F6FFC9" />
</svg>