<svg width="165" height="29" viewBox="0 0 165 29" fill="none" xmlns="http://www.w3.org/2000/svg">
<path d="M1.4 23H0.38V0.219999H1.4V23ZM20.0753 23H19.2253V18.138L19.1233 17.934V12.426C19.1233 10.522 18.67 9.13933 17.7633 8.278C16.8793 7.394 15.3947 6.952 13.3093 6.952C11.2467 6.952 9.64868 7.37133 8.51534 8.21C7.38201 9.026 6.81534 10.3067 6.81534 12.052V12.222H5.79534V12.018C5.79534 10.9527 6.07868 9.96667 6.64534 9.06C7.23468 8.15333 8.08468 7.41667 9.19534 6.85C10.3287 6.28333 11.7113 6 13.3433 6C14.9527 6 16.2447 6.29467 17.2193 6.884C18.2167 7.45067 18.942 8.21 19.3953 9.162C19.8487 10.0913 20.0753 11.1113 20.0753 12.222V23ZM10.7593 23.34C9.21801 23.34 7.93734 22.9773 6.91734 22.252C5.89734 21.5267 5.38734 20.5067 5.38734 19.192C5.38734 18.24 5.63668 17.4807 6.13534 16.914C6.63401 16.3473 7.29134 15.9167 8.10734 15.622C8.92334 15.3273 9.80734 15.1233 10.7593 15.01L19.4633 14.024V14.908L11.1673 15.826C9.58068 15.9847 8.39068 16.2907 7.59734 16.744C6.80401 17.1973 6.40734 17.9907 6.40734 19.124C6.40734 20.1667 6.75868 20.9713 7.46134 21.538C8.16401 22.1047 9.29734 22.388 10.8613 22.388C12.312 22.388 13.6607 22.1273 14.9073 21.606C16.154 21.0847 17.1627 20.3027 17.9333 19.26C18.7267 18.2173 19.1233 16.9027 19.1233 15.316L19.5993 15.588V18.172H19.1233C18.5567 19.8267 17.5253 21.1073 16.0293 22.014C14.5333 22.898 12.7767 23.34 10.7593 23.34ZM26.6855 28.78H24.9175V27.828H26.6175C27.5695 27.828 28.2721 27.658 28.7255 27.318C29.2015 26.978 29.6321 26.4 30.0175 25.584L31.5815 22.286L31.4115 23.204L22.9455 6.34H23.9995L29.6095 17.458L31.7175 21.64H31.8195L33.8595 17.458L39.2655 6.34H40.3195L30.8675 25.924C30.5501 26.604 30.1875 27.148 29.7795 27.556C29.3941 27.9867 28.9408 28.2927 28.4195 28.474C27.9208 28.678 27.3428 28.78 26.6855 28.78ZM58.832 23H57.812V13.276C57.812 11.3267 57.3133 9.78533 56.316 8.652C55.3187 7.51867 53.766 6.952 51.658 6.952C49.3913 6.952 47.6233 7.67733 46.354 9.128C45.1073 10.5787 44.484 12.5733 44.484 15.112L43.838 15.146L44.008 11.61H44.416C44.6427 10.658 45.062 9.75133 45.674 8.89C46.3087 8.02867 47.1247 7.33733 48.122 6.816C49.142 6.272 50.332 6 51.692 6C53.2787 6 54.5933 6.35133 55.636 7.054C56.7013 7.75667 57.4947 8.686 58.016 9.842C58.56 10.998 58.832 12.256 58.832 13.616V23ZM44.484 23H43.464V6.34H44.314V11.678L44.484 11.848V23ZM71.2155 23.34C69.4475 23.34 67.9288 22.966 66.6595 22.218C65.3901 21.4473 64.4155 20.4047 63.7355 19.09C63.0555 17.7753 62.7155 16.302 62.7155 14.67C62.7155 13.0153 63.0555 11.542 63.7355 10.25C64.4155 8.93533 65.3901 7.904 66.6595 7.156C67.9288 6.38533 69.4475 6 71.2155 6C72.7341 6 74.0941 6.306 75.2955 6.918C76.4968 7.50733 77.4375 8.36867 78.1175 9.502C78.8201 10.6353 79.1715 12.0067 79.1715 13.616C79.1715 13.9107 79.1488 14.194 79.1035 14.466C79.0808 14.738 79.0468 14.9647 79.0015 15.146H63.2935V14.262H78.6615L78.1515 14.772C78.1968 14.5453 78.2195 14.3073 78.2195 14.058C78.2421 13.8087 78.2535 13.5593 78.2535 13.31C78.2535 11.27 77.6188 9.706 76.3495 8.618C75.1028 7.50733 73.3915 6.952 71.2155 6.952C68.6315 6.952 66.7388 7.65467 65.5375 9.06C64.3361 10.4427 63.7355 12.2787 63.7355 14.568V14.738C63.7355 17.0273 64.3248 18.8747 65.5035 20.28C66.7048 21.6853 68.6088 22.388 71.2155 22.388C73.4368 22.388 75.1028 21.9687 76.2135 21.13C77.3468 20.2687 77.9135 19.1013 77.9135 17.628V17.458H78.9335V17.628C78.9335 18.7613 78.5821 19.7587 77.8795 20.62C77.1995 21.4813 76.2701 22.15 75.0915 22.626C73.9355 23.102 72.6435 23.34 71.2155 23.34ZM97.7135 23.34C96.0135 23.34 94.5175 22.966 93.2255 22.218C91.9562 21.4473 90.9702 20.4047 90.2675 19.09C89.5648 17.7753 89.2135 16.302 89.2135 14.67C89.2135 13.0153 89.5648 11.542 90.2675 10.25C90.9702 8.93533 91.9562 7.904 93.2255 7.156C94.5175 6.38533 96.0135 6 97.7135 6C99.1415 6 100.456 6.28333 101.658 6.85C102.859 7.394 103.822 8.16467 104.548 9.162C105.296 10.1367 105.67 11.27 105.67 12.562V12.732H104.65V12.562C104.65 10.8393 104.049 9.47933 102.848 8.482C101.646 7.462 99.9348 6.952 97.7135 6.952C95.1068 6.952 93.2028 7.666 92.0015 9.094C90.8228 10.4993 90.2335 12.358 90.2335 14.67C90.2335 16.982 90.8228 18.852 92.0015 20.28C93.2028 21.6853 95.1068 22.388 97.7135 22.388C99.9348 22.388 101.646 21.8893 102.848 20.892C104.049 19.872 104.65 18.5007 104.65 16.778V16.608H105.67V16.778C105.67 18.0473 105.296 19.1807 104.548 20.178C103.822 21.1753 102.859 21.9573 101.658 22.524C100.456 23.068 99.1415 23.34 97.7135 23.34ZM125.043 23H124.023V13.276C124.023 11.1 123.502 9.502 122.459 8.482C121.416 7.462 119.875 6.952 117.835 6.952C116.158 6.952 114.786 7.326 113.721 8.074C112.678 8.79933 111.908 9.808 111.409 11.1C110.933 12.3693 110.695 13.82 110.695 15.452L110.049 15.486L110.389 11.44H110.797C111.001 10.5107 111.386 9.638 111.953 8.822C112.52 7.98333 113.29 7.30333 114.265 6.782C115.262 6.26067 116.464 6 117.869 6C119.456 6 120.782 6.32867 121.847 6.986C122.912 7.64333 123.706 8.55 124.227 9.706C124.771 10.8393 125.043 12.1427 125.043 13.616V23ZM110.695 23H109.675V0.219999H110.695V23ZM137.426 23.34C135.658 23.34 134.14 22.966 132.87 22.218C131.601 21.4473 130.626 20.4047 129.946 19.09C129.266 17.7753 128.926 16.302 128.926 14.67C128.926 13.0153 129.266 11.542 129.946 10.25C130.626 8.93533 131.601 7.904 132.87 7.156C134.14 6.38533 135.658 6 137.426 6C138.945 6 140.305 6.306 141.506 6.918C142.708 7.50733 143.648 8.36867 144.328 9.502C145.031 10.6353 145.382 12.0067 145.382 13.616C145.382 13.9107 145.36 14.194 145.314 14.466C145.292 14.738 145.258 14.9647 145.212 15.146H129.504V14.262H144.872L144.362 14.772C144.408 14.5453 144.43 14.3073 144.43 14.058C144.453 13.8087 144.464 13.5593 144.464 13.31C144.464 11.27 143.83 9.706 142.56 8.618C141.314 7.50733 139.602 6.952 137.426 6.952C134.842 6.952 132.95 7.65467 131.748 9.06C130.547 10.4427 129.946 12.2787 129.946 14.568V14.738C129.946 17.0273 130.536 18.8747 131.714 20.28C132.916 21.6853 134.82 22.388 137.426 22.388C139.648 22.388 141.314 21.9687 142.424 21.13C143.558 20.2687 144.124 19.1013 144.124 17.628V17.458H145.144V17.628C145.144 18.7613 144.793 19.7587 144.09 20.62C143.41 21.4813 142.481 22.15 141.302 22.626C140.146 23.102 138.854 23.34 137.426 23.34ZM164.756 23H163.736V13.276C163.736 11.3267 163.237 9.78533 162.24 8.652C161.242 7.51867 159.69 6.952 157.582 6.952C155.315 6.952 153.547 7.67733 152.278 9.128C151.031 10.5787 150.408 12.5733 150.408 15.112L149.762 15.146L149.932 11.61H150.34C150.566 10.658 150.986 9.75133 151.598 8.89C152.232 8.02867 153.048 7.33733 154.046 6.816C155.066 6.272 156.256 6 157.616 6C159.202 6 160.517 6.35133 161.56 7.054C162.625 7.75667 163.418 8.686 163.94 9.842C164.484 10.998 164.756 12.256 164.756 13.616V23ZM150.408 23H149.388V6.34H150.238V11.678L150.408 11.848V23Z" fill="#E0FB60"/>
</svg>
